<!--?xml version="1.0" standalone="no"?-->
              <svg id="sw-js-blob-svg" viewBox="0 0 100 100" xmlns="http://www.w3.org/2000/svg" version="1.1">
                    <defs> 
                        <linearGradient id="sw-gradient" x1="0" x2="1" y1="1" y2="0">
                            <stop id="stop1" stop-color="rgba(0, 0, 0, 1)" offset="0%"></stop>
                            <stop id="stop2" stop-color="rgba(255, 0, 0, 1)" offset="100%"></stop>
                        </linearGradient>
                    </defs>
                <path fill="url(#sw-gradient)" d="M18.3,-29.6C24.2,-28.3,29.8,-24.4,31.1,-19C32.4,-13.6,29.4,-6.8,27.5,-1.1C25.7,4.6,24.9,9.3,24.2,15.6C23.4,22,22.7,30.1,18.7,32.8C14.7,35.6,7.3,33,0.5,32C-6.3,31.1,-12.6,31.9,-19.3,30.7C-26.1,29.6,-33.4,26.5,-37.1,21.1C-40.7,15.7,-40.7,7.8,-38.4,1.4C-36,-5.1,-31.3,-10.2,-27.5,-15.4C-23.7,-20.7,-20.9,-26,-16.5,-28.1C-12.1,-30.2,-6,-29,0.1,-29.1C6.2,-29.3,12.4,-30.8,18.3,-29.6Z" width="100%" height="100%" transform="translate(50 50)" stroke-width="0" style="transition: all 0.3s ease 0s;" stroke="url(#sw-gradient)"></path>
              </svg>